<?xml version="1.0" encoding="UTF-8"?>
<svg width="30px" height="32px" viewBox="0 0 30 32" version="1.1" xmlns="http://www.w3.org/2000/svg" xmlns:xlink="http://www.w3.org/1999/xlink">
    <!-- Generator: Sketch 44 (41411) - http://www.bohemiancoding.com/sketch -->
    <title>settings</title>
    <desc>Created with Sketch.</desc>
    <defs></defs>
    <g id="App" stroke="none" stroke-width="1" fill="none" fill-rule="evenodd">
        <g id="Chat" transform="translate(-164.000000, -877.000000)" fill-rule="nonzero" fill="#FFFFFF">
            <g id="sidebar" transform="translate(145.000000, 133.000000)">
                <g id="settings" transform="translate(0.000000, 734.000000)">
                    <g transform="translate(19.297297, 10.000000)" id="Shape">
                        <path d="M27.8915716,12.4444444 L25.1405325,12.4444444 C24.6983624,12.4444444 24.3340621,12.1795556 24.1647087,11.7351111 C23.9953554,11.2906667 24.0813934,10.8225185 24.3934174,10.4823704 L26.3385305,8.36622222 C26.6244164,8.05511111 26.7817898,7.64088889 26.7817898,7.20118519 C26.7817898,6.76088889 26.6244164,6.34725926 26.3385305,6.03555556 L23.8592192,3.33748148 C23.2874474,2.71525926 22.2903864,2.71407407 21.7175255,3.33748148 L19.772957,5.45362963 C19.4603884,5.79318519 19.0291091,5.888 18.6217898,5.70311111 C18.2133814,5.51881481 17.96997,5.12237037 17.96997,4.64118519 L17.96997,1.64740741 C17.96997,0.738962963 17.2909229,0 16.4561361,0 L12.9492693,0 C12.1144825,0 11.4354354,0.738962963 11.4354354,1.64740741 L11.4354354,4.64118519 C11.4354354,5.12237037 11.192024,5.51881481 10.7836156,5.70311111 C10.3762963,5.88859259 9.94501702,5.79318519 9.63244845,5.45362963 L7.68787988,3.33748148 C7.11501902,2.71407407 6.11795796,2.71525926 5.54618619,3.33748148 L3.06687487,6.03555556 C2.78098899,6.34666667 2.62361562,6.76088889 2.62361562,7.20118519 C2.62361562,7.64088889 2.78098899,8.05451852 3.06687487,8.36622222 L5.01198799,10.4823704 C5.32401201,10.8225185 5.40950551,11.2906667 5.2406967,11.7351111 C5.07188789,12.1795556 4.70704304,12.4444444 4.26487287,12.4444444 L1.51383383,12.4444444 C0.679047047,12.4444444 0,13.1834074 0,14.0918519 L0,17.9075556 C0,18.8165926 0.679047047,19.5555556 1.51383383,19.5555556 L4.26487287,19.5555556 C4.70704304,19.5555556 5.07134334,19.8204444 5.2406967,20.2648889 C5.41005005,20.7093333 5.32401201,21.1774815 5.01198799,21.5176296 L3.06687487,23.6337778 C2.78098899,23.9448889 2.62361562,24.3591111 2.62361562,24.7988148 C2.62361562,25.2391111 2.78098899,25.6527407 3.06687487,25.9644444 L5.54618619,28.6625185 C6.1185025,29.2853333 7.11501902,29.2865185 7.68787988,28.6625185 L9.63244845,26.5457778 C9.94501702,26.2062222 10.3746627,26.1125926 10.7836156,26.2968889 C11.192024,26.4811852 11.4354354,26.8776296 11.4354354,27.3588148 L11.4354354,30.3525926 C11.4354354,31.261037 12.1144825,32 12.9492693,32 L16.4555916,32 C17.2903784,32 17.9694254,31.261037 17.9694254,30.3525926 L17.9694254,27.3588148 C17.9694254,26.8776296 18.2128368,26.4811852 18.6212452,26.2968889 C19.0301982,26.112 19.4598438,26.2062222 19.7724124,26.5457778 L21.716981,28.6625185 C22.2898418,29.2859259 23.2869029,29.2847407 23.8586747,28.6625185 L26.337986,25.9644444 C26.6238719,25.6533333 26.7812452,25.2391111 26.7812452,24.7988148 C26.7812452,24.3591111 26.6238719,23.9454815 26.337986,23.6337778 L24.3928729,21.5176296 C24.0808488,21.1774815 23.9953554,20.7093333 24.1641642,20.2648889 C24.332973,19.8204444 24.6983624,19.5555556 25.1405325,19.5555556 L27.8915716,19.5555556 C28.7263584,19.5555556 29.4054054,18.8165926 29.4054054,17.9081481 L29.4054054,14.0918519 C29.4054054,13.1834074 28.7263584,12.4444444 27.8915716,12.4444444 Z M28.3163163,17.9081481 C28.3163163,18.162963 28.1257257,18.3703704 27.8915716,18.3703704 L25.1405325,18.3703704 C24.2561922,18.3703704 23.4965526,18.9226667 23.1583904,19.8115556 C22.8196837,20.7004444 22.9977497,21.6758519 23.6234314,22.3561481 L25.5685445,24.4722963 C25.7346306,24.653037 25.7346306,24.9463704 25.5685445,25.1265185 L23.0892332,27.8245926 C22.9236917,28.0047407 22.6541421,28.0059259 22.4880561,27.8245926 L20.5434875,25.7078519 C19.9178058,25.026963 19.02203,24.8343704 18.2052132,25.2017778 C17.3883964,25.5697778 16.8808809,26.3964444 16.8808809,27.3588148 L16.8808809,30.3525926 C16.8808809,30.6074074 16.6902903,30.8148148 16.4561361,30.8148148 L12.9492693,30.8148148 C12.7151151,30.8148148 12.5245245,30.6074074 12.5245245,30.3525926 L12.5245245,27.3588148 C12.5245245,26.3964444 12.017009,25.5697778 11.2001922,25.2017778 C10.9262863,25.0779259 10.6442122,25.0174815 10.3654054,25.0174815 C9.81323724,25.0174815 9.27794995,25.2545185 8.86191792,25.7072593 L6.91734935,27.824 C6.75071872,28.0053333 6.48116917,28.0041481 6.31617217,27.824 L3.83686086,25.1259259 C3.67077477,24.9451852 3.67077477,24.6518519 3.83686086,24.4717037 L5.78197397,22.3555556 C6.40711111,21.6752593 6.58572172,20.6998519 6.24701502,19.810963 C5.90885285,18.9226667 5.14921321,18.3703704 4.26487287,18.3703704 L1.51383383,18.3703704 C1.27967968,18.3703704 1.08908909,18.162963 1.08908909,17.9081481 L1.08908909,14.0918519 C1.08908909,13.837037 1.27967968,13.6296296 1.51383383,13.6296296 L4.26487287,13.6296296 C5.14921321,13.6296296 5.90885285,13.0773333 6.24701502,12.1884444 C6.58572172,11.2995556 6.40765566,10.3241481 5.78197397,9.64385185 L3.83686086,7.5277037 C3.67077477,7.34696296 3.67077477,7.05362963 3.83686086,6.87348148 L6.31617217,4.17540741 C6.48171371,3.99466667 6.75126326,3.99466667 6.91734935,4.17540741 L8.86191792,6.29155556 C9.48651051,6.97125926 10.3822863,7.16622222 11.2001922,6.79762963 C12.017009,6.43022222 12.5245245,5.60355556 12.5245245,4.64118519 L12.5245245,1.64740741 C12.5245245,1.39259259 12.7151151,1.18518519 12.9492693,1.18518519 L16.4555916,1.18518519 C16.6902903,1.18518519 16.8808809,1.39259259 16.8808809,1.64740741 L16.8808809,4.64118519 C16.8808809,5.60355556 17.3883964,6.43022222 18.2052132,6.79822222 C19.0231191,7.16681481 19.9183504,6.97244444 20.5434875,6.29214815 L22.4880561,4.176 C22.6546867,3.99525926 22.9242362,3.99525926 23.0892332,4.176 L25.5685445,6.87407407 C25.7346306,7.05481481 25.7346306,7.34814815 25.5685445,7.5282963 L23.6234314,9.64444444 C22.9982943,10.3247407 22.8196837,11.3001481 23.1583904,12.189037 C23.4965526,13.0779259 24.2561922,13.6302222 25.1405325,13.6302222 L27.8915716,13.6302222 C28.1257257,13.6296296 28.3163163,13.837037 28.3163163,14.0918519 L28.3163163,17.9081481 Z"></path>
                        <path d="M14.7027027,10.6666667 C12.0001281,10.6666667 9.8018018,13.058963 9.8018018,16 C9.8018018,18.941037 12.0001281,21.3333333 14.7027027,21.3333333 C17.4052773,21.3333333 19.6036036,18.941037 19.6036036,16 C19.6036036,13.058963 17.4052773,10.6666667 14.7027027,10.6666667 Z M14.7027027,20.1481481 C12.6013053,20.1481481 10.8908909,18.2868148 10.8908909,16 C10.8908909,13.7131852 12.6013053,11.8518519 14.7027027,11.8518519 C16.8041001,11.8518519 18.5145145,13.7131852 18.5145145,16 C18.5145145,18.2868148 16.8041001,20.1481481 14.7027027,20.1481481 Z"></path>
                    </g>
                </g>
            </g>
        </g>
    </g>
</svg>