<?xml version="1.0" encoding="UTF-8"?>
<svg width="24px" height="20px" viewBox="0 0 24 20" version="1.1" xmlns="http://www.w3.org/2000/svg" xmlns:xlink="http://www.w3.org/1999/xlink">
    <!-- Generator: Sketch 44.1 (41455) - http://www.bohemiancoding.com/sketch -->
    <title>logout</title>
    <desc>Created with Sketch.</desc>
    <defs></defs>
    <g id="App" stroke="none" stroke-width="1" fill="none" fill-rule="evenodd">
        <g id="Resume" transform="translate(-577.000000, -562.000000)" fill-rule="nonzero" fill="#FFFFFF">
            <g id="logout" transform="translate(577.000000, 562.000000)">
                <path d="M3.82900935,10.9938384 L16.8222804,10.9938384 C17.4416449,10.9938384 17.9437757,10.5016109 17.9437757,9.89446189 C17.9437757,9.28731289 17.4416449,8.79508538 16.8222804,8.79508538 L3.82900935,8.79508538 L5.27902804,7.37366484 C5.71700935,6.94432167 5.71700935,6.24826975 5.27902804,5.81892658 C4.8411215,5.38958341 4.13099065,5.38958341 3.69300935,5.81892658 L0.328672897,9.11698282 C0.302429907,9.14270823 0.277607477,9.1696796 0.254130841,9.19782364 C0.24388785,9.21006337 0.234990654,9.22303601 0.225345794,9.2355689 C0.213009346,9.25169309 0.200299065,9.26745082 0.188859813,9.28423464 C0.178392523,9.29955261 0.169345794,9.31545693 0.159775701,9.33114137 C0.150579439,9.34623947 0.140934579,9.36097112 0.132485981,9.37650897 C0.123663551,9.39263316 0.116261682,9.4091971 0.108336449,9.42561445 C0.100560748,9.44166535 0.092411215,9.45749637 0.0854579439,9.47391373 C0.078728972,9.48996463 0.0731962617,9.50630869 0.0672897196,9.52257946 C0.0607850467,9.54016949 0.0539065421,9.55753964 0.0483738318,9.57549612 C0.043364486,9.59176689 0.0397009346,9.60825754 0.0355140187,9.62474819 C0.0308037383,9.64299784 0.0255700935,9.6611742 0.0218317757,9.6797903 C0.0180186916,9.69877287 0.0157009346,9.71797531 0.0129345794,9.73710447 C0.0105420561,9.75344853 0.0073271028,9.76957272 0.00568224299,9.78613666 C0.00209345794,9.82160987 0.000224299065,9.85730296 0.00014953271,9.89292276 C0.00014953271,9.89343581 7.47663551e-05,9.89402214 7.47663551e-05,9.89453518 C7.47663551e-05,9.89504822 0.00014953271,9.89563456 0.00014953271,9.8961476 C0.000224299065,9.93184069 0.00209345794,9.96746049 0.00568224299,10.003007 C0.0073271028,10.0193511 0.0104672897,10.0352554 0.0127850467,10.0514529 C0.0156261682,10.0708019 0.0179439252,10.0901509 0.0218317757,10.1093534 C0.0255700935,10.1278229 0.030728972,10.1457061 0.0354392523,10.1638091 C0.0397009346,10.1804464 0.0434392523,10.1972302 0.0485233645,10.2137208 C0.0539813084,10.2313841 0.0607850467,10.2484611 0.0670654206,10.265758 C0.0731214953,10.2823219 0.0786542056,10.2989592 0.0855327103,10.3152299 C0.0923364486,10.3313541 0.100336449,10.3468187 0.107962617,10.3625764 C0.116037383,10.3793602 0.123663551,10.3962906 0.132635514,10.4127813 C0.140859813,10.4278061 0.150205607,10.442098 0.159102804,10.456683 C0.168897196,10.4728805 0.178242991,10.4892246 0.189009346,10.5049823 C0.199925234,10.5210332 0.21211215,10.536058 0.223850467,10.5515226 C0.234018692,10.5647884 0.243439252,10.578494 0.254280374,10.5913933 C0.276635514,10.6180715 0.300336449,10.6436503 0.325084112,10.6682031 C0.326280374,10.6693757 0.327252336,10.670695 0.328448598,10.6718677 L3.69293458,13.9700705 C3.912,14.1847421 4.19895327,14.2921145 4.48598131,14.2921145 C4.77293458,14.2920412 5.06003738,14.1847421 5.27895327,13.9701438 C5.71693458,13.5408006 5.71693458,12.8447487 5.27902804,12.4154055 L3.82900935,10.9938384 Z" id="XMLID_7_"></path>
                <path d="M22.8038879,0 L8.59828037,0 C7.97891589,0 7.47678505,0.49222751 7.47678505,1.09937651 L7.47678505,5.49688256 C7.47678505,6.10403156 7.97891589,6.59625907 8.59828037,6.59625907 C9.21764486,6.59625907 9.7197757,6.10403156 9.7197757,5.49688256 L9.7197757,2.19875302 L21.6823925,2.19875302 L21.6823925,17.5900975 L9.7197757,17.5900975 L9.7197757,14.2918946 C9.7197757,13.6847456 9.21764486,13.1925181 8.59828037,13.1925181 C7.97891589,13.1925181 7.47678505,13.6847456 7.47678505,14.2918946 L7.47678505,18.689474 C7.47678505,19.296623 7.97891589,19.7888505 8.59828037,19.7888505 L22.8038879,19.7888505 C23.4232523,19.7888505 23.9253832,19.296623 23.9253832,18.689474 L23.9253832,1.09937651 C23.9253832,0.49222751 23.4232523,0 22.8038879,0 Z" id="XMLID_8_"></path>
            </g>
        </g>
    </g>
</svg>