<?xml version="1.0" encoding="UTF-8"?>
<svg width="24px" height="24px" viewBox="0 0 24 24" version="1.1" xmlns="http://www.w3.org/2000/svg" xmlns:xlink="http://www.w3.org/1999/xlink">
    <!-- Generator: Sketch 44.1 (41455) - http://www.bohemiancoding.com/sketch -->
    <title>send-btn</title>
    <desc>Created with Sketch.</desc>
    <defs></defs>
    <g id="Symbols" stroke="none" stroke-width="1" fill="none" fill-rule="evenodd">
        <g id="chat-bar/inactive" transform="translate(-804.000000, -13.000000)" fill-rule="nonzero" fill="#999999">
            <g id="inactive">
                <path d="M827.997792,13.4553945 C827.992774,13.4153769 827.987803,13.3753123 827.972796,13.3352946 C827.967778,13.3202821 827.962807,13.3002498 827.957789,13.2852373 C827.932793,13.2302072 827.897762,13.1801499 827.857759,13.1351124 C827.812738,13.0950947 827.762699,13.06005 827.707689,13.0350448 C827.692682,13.030025 827.672657,13.0200323 827.65765,13.0200323 C827.617647,13.0100396 827.577598,13 827.537595,13 L827.482585,13 C827.437564,13 827.387525,13.0099927 827.342504,13.0250052 C827.332515,13.030025 827.322479,13.030025 827.31249,13.0349979 L827.307472,13.0349979 L804.301809,23.0333637 C804.046691,23.1434709 803.931653,23.438701 804.041673,23.6939133 C804.086694,23.7990007 804.166747,23.8840559 804.266778,23.9341131 L812.63067,28.362798 L817.06274,36.7297752 C817.147763,36.8949126 817.317858,36.9949802 817.502959,37 L817.522984,37 C817.713057,36.9949802 817.883151,36.8748803 817.963204,36.6997502 L827.962761,13.6905746 L827.962761,13.6855548 C827.967778,13.6755621 827.967778,13.6655225 827.97275,13.6555298 C827.987756,13.6104923 827.997745,13.5654549 827.997745,13.5153976 C827.997792,13.4954122 828.002763,13.4753799 827.997792,13.4553945 Z M805.657406,23.5287759 L825.301511,14.9866686 L812.915755,27.3719736 L805.657406,23.5287759 Z M817.467881,35.3436062 L813.6261,28.0825804 L826.006838,15.6922557 L817.467881,35.3436062 Z" id="send-btn"></path>
            </g>
        </g>
    </g>
</svg>