<?xml version="1.0" encoding="UTF-8"?>
<svg width="28px" height="28px" viewBox="0 0 28 28" version="1.1" xmlns="http://www.w3.org/2000/svg" xmlns:xlink="http://www.w3.org/1999/xlink">
    <!-- Generator: Sketch 44.1 (41455) - http://www.bohemiancoding.com/sketch -->
    <title>magnifying-glass</title>
    <desc>Created with Sketch.</desc>
    <defs></defs>
    <g id="App" stroke="none" stroke-width="1" fill="none" fill-rule="evenodd">
        <g id="Chat" transform="translate(-498.000000, -380.000000)" fill-rule="nonzero" fill="#B3B3B3">
            <g id="magnifying-glass" transform="translate(498.000000, 380.000000)">
                <path d="M27.7547672,26.5720621 L20.9503326,19.7676275 C22.7756098,17.6691796 23.8807095,14.9312639 23.8807095,11.9388027 C23.8807095,5.35166297 18.5228381,0 11.9419069,0 C5.35476718,0 0.00310421286,5.3578714 0.00310421286,11.9388027 C0.00310421286,18.5197339 5.36097561,23.8776053 11.9419069,23.8776053 C14.9343681,23.8776053 17.6722838,22.7725055 19.7707317,20.9472284 L26.5751663,27.751663 C26.7365854,27.913082 26.9538803,28 27.1649667,28 C27.3760532,28 27.5933481,27.9192905 27.7547672,27.751663 C28.0776053,27.4288248 28.0776053,26.8949002 27.7547672,26.5720621 Z M1.67317073,11.9388027 C1.67317073,6.2767184 6.27982262,1.67627494 11.9356984,1.67627494 C17.5977827,1.67627494 22.1982262,6.28292683 22.1982262,11.9388027 C22.1982262,17.5946785 17.5977827,22.2075388 11.9356984,22.2075388 C6.27982262,22.2075388 1.67317073,17.6008869 1.67317073,11.9388027 Z" id="Shape"></path>
            </g>
        </g>
    </g>
</svg>