<?xml version="1.0" encoding="UTF-8"?>
<svg width="81px" height="81px" viewBox="0 0 81 81" version="1.1" xmlns="http://www.w3.org/2000/svg" xmlns:xlink="http://www.w3.org/1999/xlink">
    <!-- Generator: Sketch 43.2 (39069) - http://www.bohemiancoding.com/sketch -->
    <title>Shape</title>
    <desc>Created with Sketch.</desc>
    <defs></defs>
    <g id="App" stroke="none" stroke-width="1" fill="none" fill-rule="evenodd">
        <g id="Login" transform="translate(-680.000000, -374.000000)" fill-rule="nonzero" fill="#FFFFFF">
            <g id="logo" transform="translate(674.000000, 368.000000)">
                <g id="user" transform="translate(6.000000, 6.000000)">
                    <path d="M81,40.5 C81,18.1690364 62.8309636,0 40.5,0 C18.1690364,0 0,18.1690364 0,40.5 C0,52.2950727 5.07207273,62.9266909 13.1455636,70.3345091 L13.1072727,70.3683818 L14.4209455,71.4758727 C14.5063636,71.5480364 14.5991455,71.6069455 14.6845636,71.6776364 C15.3826364,72.2564182 16.1057455,72.8057455 16.8421091,73.3374 C17.0806909,73.5097091 17.3192727,73.6820182 17.5622727,73.8499091 C18.3487091,74.3918727 19.1557636,74.9058545 19.9804909,75.3933273 C20.1601636,75.4993636 20.3413091,75.6024545 20.5224545,75.7055455 C21.4252364,76.2195273 22.3471636,76.7040545 23.2911818,77.1488182 C23.3604,77.1812182 23.4310909,77.2106727 23.5003091,77.2430727 C26.5768364,78.6730909 29.8610182,79.7231455 33.2954182,80.3431636 C33.3852545,80.3593636 33.4750909,80.3755636 33.5664,80.3917636 C34.6326545,80.5758545 35.7106909,80.7231273 36.8019818,80.8218 C36.9345273,80.8335818 37.0670727,80.8409455 37.2010909,80.8527273 C38.2879636,80.9425636 39.3866182,81 40.5,81 C41.6030727,81 42.6914182,80.9425636 43.7724,80.8556727 C43.9093636,80.8438909 44.0463273,80.8365273 44.1832909,80.8247455 C45.2657455,80.7260727 46.3349455,80.5832182 47.3908909,80.4020727 C47.4822,80.3858727 47.5749818,80.3696727 47.6662909,80.352 C51.0491455,79.7452364 54.2862,78.7187455 57.3229636,77.3255455 C57.4348909,77.274 57.5482909,77.2254 57.6602182,77.1723818 C58.5688909,76.7452909 59.4569455,76.2843273 60.3273273,75.7939091 C60.5438182,75.6716727 60.7588364,75.5479636 60.9738545,75.4213091 C61.7661818,74.9544545 62.5452545,74.4669818 63.3022364,73.9485818 C63.5746909,73.7630182 63.8412545,73.5671455 64.1107636,73.3727455 C64.7572909,72.9073636 65.3920364,72.4272545 66.0091091,71.9250545 C66.1460727,71.8146 66.2933455,71.7188727 66.4273636,71.6054727 L67.7749091,70.4803091 L67.7351455,70.4464364 C75.8793273,63.0356727 81,52.3554545 81,40.5 Z M2.94545455,40.5 C2.94545455,19.7919818 19.7919818,2.94545455 40.5,2.94545455 C61.2080182,2.94545455 78.0545455,19.7919818 78.0545455,40.5 C78.0545455,51.6588545 73.1577273,61.6910727 65.4052909,68.5746 C64.9723091,68.2756364 64.5363818,68.0076 64.0901455,67.7837455 L51.6205636,61.5496909 C50.5012909,60.9900545 49.8061636,59.8648909 49.8061636,58.6145455 L49.8061636,54.2596909 C50.0948182,53.9032909 50.3996727,53.4997636 50.7148364,53.0564727 C52.3289455,50.7766909 53.6234727,48.2406545 54.5674909,45.5116909 C56.4334364,44.6251091 57.6381273,42.7665273 57.6381273,40.6678909 L57.6381273,35.4470727 C57.6381273,34.1702182 57.1698,32.9316545 56.3318182,31.9581818 L56.3318182,25.0849636 C56.4084,24.3206182 56.6793818,20.007 53.5586727,16.4488909 C50.8444364,13.3502727 46.4512909,11.7818182 40.5,11.7818182 C34.5487091,11.7818182 30.1555636,13.3502727 27.4413273,16.4474182 C24.3206182,20.0055273 24.5916,24.3191455 24.6681818,25.0834909 L24.6681818,31.9567091 C23.8316727,32.9301818 23.3618727,34.1687455 23.3618727,35.4456 L23.3618727,40.6664182 C23.3618727,42.2878909 24.0894,43.8003818 25.3353273,44.8209818 C26.5282364,49.4939455 28.9832727,53.0314364 29.8904727,54.2302364 L29.8904727,58.4923091 C29.8904727,59.6940545 29.2351091,60.7986 28.1791636,61.3759091 L16.5343091,67.7277818 C16.1631818,67.9295455 15.795,68.1651818 15.4268182,68.4288 C7.77010909,61.5482182 2.94545455,51.5778545 2.94545455,40.5 Z M62.5305273,70.8853091 C62.0150727,71.2593818 61.4907818,71.6216727 60.9591273,71.9677636 C60.7146545,72.1268182 60.4716545,72.2858727 60.2227636,72.4405091 C59.5276364,72.8705455 58.8207273,73.2799636 58.0990909,73.6628727 C57.9400364,73.7468182 57.7795091,73.8263455 57.6189818,73.9088182 C55.9606909,74.7585818 54.2449636,75.4890545 52.4821091,76.0825636 C52.4202545,76.1031818 52.3584,76.1252727 52.2950727,76.1458909 C51.3716727,76.4522182 50.4364909,76.7246727 49.491,76.9588364 C49.4880545,76.9588364 49.4851091,76.9603091 49.4821636,76.9603091 C48.5278364,77.1959455 47.5617273,77.3918182 46.5897273,77.5523455 C46.5632182,77.5567636 46.5367091,77.5626545 46.5102,77.5670727 C45.5956364,77.7158182 44.6737091,77.8233273 43.7488364,77.9043273 C43.5853636,77.9190545 43.4218909,77.9293636 43.2569455,77.9411455 C42.3423818,78.0103636 41.4234,78.0545455 40.5,78.0545455 C39.5662909,78.0545455 38.6355273,78.0088909 37.7091818,77.9396727 C37.5486545,77.9278909 37.3881273,77.9175818 37.2290727,77.9028545 C36.2953636,77.8203818 35.3660727,77.7099273 34.4456182,77.5597091 C34.4043818,77.5523455 34.3631455,77.5449818 34.3219091,77.5376182 C32.3749636,77.2121455 30.4589455,76.7335091 28.593,76.1076 C28.5355636,76.0884545 28.4766545,76.0678364 28.4192182,76.0486909 C27.4928727,75.7335273 26.5768364,75.3844909 25.677,74.9986364 C25.6711091,74.9956909 25.6637455,74.9927455 25.6578545,74.9898 C24.8066182,74.6230909 23.9715818,74.2166182 23.1468545,73.7880545 C23.0393455,73.7320909 22.9303636,73.6790727 22.8243273,73.6216364 C22.0717636,73.2195818 21.3354,72.7851273 20.6093455,72.3315273 C20.3943273,72.1960364 20.1807818,72.0590727 19.9687091,71.9206364 C19.3000909,71.4832364 18.6403091,71.0281636 17.9982,70.5465818 C17.9319273,70.4965091 17.8686,70.4434909 17.8023273,70.3934182 C17.8494545,70.3669091 17.8965818,70.3404 17.9437091,70.3138909 L29.5885636,63.9620182 C31.5914727,62.8692545 32.8359273,60.7735636 32.8359273,58.4923091 L32.8344545,53.1875455 L32.4957273,52.7781273 C32.4633273,52.7413091 29.2792909,48.8680364 28.0760727,43.6236545 L27.9420545,43.0404545 L27.4398545,42.7149818 C26.7314727,42.2569636 26.3073273,41.4911455 26.3073273,40.6649455 L26.3073273,35.4441273 C26.3073273,34.7593091 26.5974545,34.1216182 27.1276364,33.6429818 L27.6136364,33.2041091 L27.6136364,25.0010182 L27.6003818,24.8080909 C27.5959636,24.7727455 27.1615091,21.2308364 29.6563091,18.387 C31.7858727,15.9599455 35.4352909,14.7272727 40.5,14.7272727 C45.5455636,14.7272727 49.1832,15.9496364 51.3186545,18.3590182 C53.8105091,21.1734 53.4025636,24.7815818 53.3996182,24.8110364 L53.3863636,33.2070545 L53.8723636,33.6459273 C54.4010727,34.1230909 54.6926727,34.7622545 54.6926727,35.4470727 L54.6926727,40.6678909 C54.6926727,41.7179455 53.9784,42.6708 52.9533818,42.9874364 L52.2214364,43.2127636 L51.9858,43.9417636 C51.1168909,46.6412727 49.8798,49.1346 48.3098727,51.3525273 C47.9240182,51.8974364 47.5484727,52.3804909 47.2259455,52.7501455 L46.8607091,53.1669273 L46.8607091,58.6145455 C46.8607091,60.9885818 48.1802727,63.1240364 50.3039455,64.1844 L62.7735273,70.4184545 C62.8530545,70.4582182 62.9311091,70.4994545 63.0091636,70.5406909 C62.8515818,70.6599818 62.6895818,70.7704364 62.5305273,70.8853091 Z" id="Shape"></path>
                </g>
            </g>
        </g>
    </g>
</svg>