<?xml version="1.0" encoding="UTF-8"?>
<svg width="18px" height="18px" viewBox="0 0 18 18" version="1.1" xmlns="http://www.w3.org/2000/svg" xmlns:xlink="http://www.w3.org/1999/xlink">
    <!-- Generator: Sketch 44.1 (41455) - http://www.bohemiancoding.com/sketch -->
    <title>cancel</title>
    <desc>Created with Sketch.</desc>
    <defs></defs>
    <g id="App" stroke="none" stroke-width="1" fill="none" fill-rule="evenodd">
        <g id="Chat" transform="translate(-1072.000000, -159.000000)" fill-rule="nonzero" fill="#FFFFFF">
            <g id="notification" transform="translate(1056.000000, 143.000000)">
                <g id="cancel" transform="translate(16.000000, 16.000000)">
                    <g id="Shape">
                        <path d="M8.13965625,9.0792 L0.17240625,16.9238769 C-0.0489375,17.1418154 -0.0489375,17.4948923 0.17240625,17.7128308 C0.2829375,17.8219385 0.4280625,17.8762154 0.57290625,17.8762154 C0.71803125,17.8762154 0.862875,17.8219385 0.97340625,17.7128308 L9.0005625,9.80916923 L17.0277187,17.7128308 C17.1385312,17.8219385 17.283375,17.8762154 17.4282187,17.8762154 C17.5730625,17.8762154 17.7181875,17.8219385 17.8287187,17.7128308 C18.0500625,17.4948923 18.0500625,17.1418154 17.8287187,16.9238769 L9.86175,9.0792 L17.8340625,1.22898462 C18.0554062,1.01104615 18.0554062,0.657969231 17.8340625,0.440030769 C17.6127187,0.222369231 17.254125,0.222369231 17.0330625,0.440030769 L9.00084375,8.34923077 L0.96778125,0.440307692 C0.7464375,0.222646154 0.388125,0.222646154 0.16678125,0.440307692 C-0.0545625,0.658246154 -0.0545625,1.01132308 0.16678125,1.22926154 L8.13965625,9.0792 Z"></path>
                    </g>
                </g>
            </g>
        </g>
    </g>
</svg>